<?xml version="1.0" encoding="UTF-8" standalone="no"?>
<!-- Created with Inkscape (http://www.inkscape.org/) -->

<svg
   width="52.652mm"
   height="4.0910001mm"
   viewBox="0 0 52.652 4.0910001"
   version="1.1"
   id="svg5"
   inkscape:version="1.1.2 (b8e25be833, 2022-02-05)"
   sodipodi:docname="mail.svg"
   xmlns:inkscape="http://www.inkscape.org/namespaces/inkscape"
   xmlns:sodipodi="http://sodipodi.sourceforge.net/DTD/sodipodi-0.dtd"
   xmlns="http://www.w3.org/2000/svg"
   xmlns:svg="http://www.w3.org/2000/svg">
  <sodipodi:namedview
     id="namedview7"
     pagecolor="#ffffff"
     bordercolor="#666666"
     borderopacity="1.0"
     inkscape:pageshadow="2"
     inkscape:pageopacity="0.0"
     inkscape:pagecheckerboard="0"
     inkscape:document-units="mm"
     showgrid="false"
     width="52.652mm"
     inkscape:zoom="1.8209035"
     inkscape:cx="80.454567"
     inkscape:cy="-11.532737"
     inkscape:window-width="1366"
     inkscape:window-height="697"
     inkscape:window-x="-8"
     inkscape:window-y="-8"
     inkscape:window-maximized="1"
     inkscape:current-layer="layer1" />
  <defs
     id="defs2">
    <rect
       x="107.63887"
       y="162.55667"
       width="540.39105"
       height="133.9994"
       id="rect825" />
  </defs>
  <g
     inkscape:label="Layer 1"
     inkscape:groupmode="layer"
     id="layer1">
    <g
       aria-label="kutsuzawa@tohoku.ac.jp"
       transform="matrix(0.26458333,0,0,0.26458333,-28.878339,-50.211405)"
       id="text823"
       style="font-size:40px;line-height:1.25;letter-spacing:0px;word-spacing:0px;white-space:pre;shape-inside:url(#rect825)">
      <path
         d="m 117.00586,201.93164 h -1.9375 l -3.5,-3.82031 -0.95313,0.90625 v 2.91406 h -1.46875 v -12.15625 h 1.46875 v 7.79688 l 4.24219,-4.36719 h 1.85156 l -4.05468,4.03125 z"
         style="font-size:16px;-inkscape-font-specification:'sans-serif, Normal'"
         id="path6145" />
      <path
         d="m 125.78711,201.93164 h -1.46875 v -0.96875 q -0.74219,0.58594 -1.42188,0.89844 -0.67968,0.3125 -1.5,0.3125 -1.375,0 -2.14062,-0.83594 -0.76563,-0.84375 -0.76563,-2.46875 v -5.66406 h 1.46875 v 4.96875 q 0,0.66406 0.0625,1.14062 0.0625,0.46875 0.26563,0.80469 0.21094,0.34375 0.54687,0.5 0.33594,0.15625 0.97657,0.15625 0.57031,0 1.24218,-0.29687 0.67969,-0.29688 1.26563,-0.75782 v -6.51562 h 1.46875 z"
         style="font-size:16px;-inkscape-font-specification:'sans-serif, Normal'"
         id="path6147" />
      <path
         d="m 133.20898,201.85352 q -0.41406,0.10937 -0.90625,0.17968 -0.48437,0.0703 -0.86718,0.0703 -1.33594,0 -2.03125,-0.71875 -0.69532,-0.71875 -0.69532,-2.30469 v -4.64063 h -0.99218 v -1.23437 h 0.99218 v -2.50781 h 1.46875 v 2.50781 h 3.03125 v 1.23437 h -3.03125 v 3.97657 q 0,0.6875 0.0312,1.07812 0.0312,0.38281 0.21875,0.71875 0.17188,0.3125 0.46875,0.46094 0.30469,0.14062 0.92188,0.14062 0.35937,0 0.75,-0.10156 0.39062,-0.10937 0.5625,-0.17969 h 0.0781 z"
         style="font-size:16px;-inkscape-font-specification:'sans-serif, Normal'"
         id="path6149" />
      <path
         d="m 141.2168,199.41602 q 0,1.19531 -0.99219,1.96093 -0.98438,0.76563 -2.69531,0.76563 -0.96875,0 -1.78125,-0.22656 -0.80469,-0.23438 -1.35157,-0.50782 v -1.64843 h 0.0781 q 0.69531,0.52343 1.54687,0.83593 0.85157,0.30469 1.63282,0.30469 0.96875,0 1.51562,-0.3125 0.54688,-0.3125 0.54688,-0.98437 0,-0.51563 -0.29688,-0.78125 -0.29687,-0.26563 -1.14062,-0.45313 -0.3125,-0.0703 -0.82032,-0.16406 -0.5,-0.0937 -0.91406,-0.20313 -1.14844,-0.30468 -1.63281,-0.89062 -0.47656,-0.59375 -0.47656,-1.45313 0,-0.53906 0.21875,-1.01562 0.22656,-0.47656 0.67968,-0.85156 0.4375,-0.36719 1.10938,-0.57813 0.67969,-0.21875 1.51562,-0.21875 0.78125,0 1.57813,0.19531 0.80469,0.1875 1.33594,0.46094 v 1.57031 h -0.0781 q -0.5625,-0.41406 -1.36719,-0.69531 -0.80468,-0.28906 -1.57812,-0.28906 -0.80469,0 -1.35938,0.3125 -0.55468,0.30469 -0.55468,0.91406 0,0.53906 0.33593,0.8125 0.32813,0.27344 1.0625,0.44531 0.40625,0.0937 0.90625,0.1875 0.50782,0.0937 0.84375,0.17188 1.02344,0.23437 1.57813,0.80469 0.55469,0.57812 0.55469,1.53125 z"
         style="font-size:16px;-inkscape-font-specification:'sans-serif, Normal'"
         id="path6151" />
      <path
         d="m 150.55273,201.93164 h -1.46875 v -0.96875 q -0.74218,0.58594 -1.42187,0.89844 -0.67969,0.3125 -1.5,0.3125 -1.375,0 -2.14063,-0.83594 -0.76562,-0.84375 -0.76562,-2.46875 v -5.66406 h 1.46875 v 4.96875 q 0,0.66406 0.0625,1.14062 0.0625,0.46875 0.26562,0.80469 0.21094,0.34375 0.54688,0.5 0.33594,0.15625 0.97656,0.15625 0.57031,0 1.24219,-0.29687 0.67969,-0.29688 1.26562,-0.75782 v -6.51562 h 1.46875 z"
         style="font-size:16px;-inkscape-font-specification:'sans-serif, Normal'"
         id="path6153" />
      <path
         d="m 159.77148,201.93164 h -7.04687 v -1.08594 l 5.08594,-6.41406 h -4.97657 v -1.22656 h 6.80469 v 1.04687 l -5.10937,6.4375 h 5.24218 z"
         style="font-size:16px;-inkscape-font-specification:'sans-serif, Normal'"
         id="path6155" />
      <path
         d="m 168.63086,201.93164 h -1.46094 v -0.92969 q -0.19531,0.13282 -0.53125,0.375 -0.32812,0.23438 -0.64062,0.375 -0.36719,0.17969 -0.84375,0.29688 -0.47657,0.125 -1.11719,0.125 -1.17969,0 -2,-0.78125 -0.82031,-0.78125 -0.82031,-1.99219 0,-0.99219 0.42187,-1.60156 0.42969,-0.61719 1.21875,-0.96875 0.79688,-0.35156 1.91406,-0.47656 1.11719,-0.125 2.39844,-0.1875 v -0.22657 q 0,-0.5 -0.17969,-0.82812 -0.17187,-0.32813 -0.5,-0.51563 -0.3125,-0.17968 -0.75,-0.24218 -0.4375,-0.0625 -0.91406,-0.0625 -0.57812,0 -1.28906,0.15625 -0.71094,0.14843 -1.46875,0.4375 h -0.0781 v -1.49219 q 0.42969,-0.11719 1.24219,-0.25781 0.8125,-0.14063 1.60156,-0.14063 0.92188,0 1.60157,0.15625 0.6875,0.14844 1.1875,0.51563 0.49218,0.35937 0.75,0.92968 0.25781,0.57032 0.25781,1.41407 z m -1.46094,-2.14844 v -2.42968 q -0.67187,0.0391 -1.58594,0.11718 -0.90625,0.0781 -1.4375,0.22657 -0.63281,0.17968 -1.02343,0.5625 -0.39063,0.375 -0.39063,1.03906 0,0.75 0.45313,1.13281 0.45312,0.375 1.38281,0.375 0.77344,0 1.41406,-0.29687 0.64063,-0.30469 1.1875,-0.72657 z"
         style="font-size:16px;-inkscape-font-specification:'sans-serif, Normal'"
         id="path6157" />
      <path
         d="m 182.35742,193.20508 -2.27344,8.72656 h -1.35937 l -2.24219,-6.72656 -2.22656,6.72656 h -1.35156 l -2.29688,-8.72656 h 1.53125 l 1.60156,6.75781 2.17969,-6.75781 h 1.21094 l 2.23437,6.75781 1.51563,-6.75781 z"
         style="font-size:16px;-inkscape-font-specification:'sans-serif, Normal'"
         id="path6159" />
      <path
         d="m 191.09961,201.93164 h -1.46094 v -0.92969 q -0.19531,0.13282 -0.53125,0.375 -0.32812,0.23438 -0.64062,0.375 -0.36719,0.17969 -0.84375,0.29688 -0.47657,0.125 -1.11719,0.125 -1.17969,0 -2,-0.78125 -0.82031,-0.78125 -0.82031,-1.99219 0,-0.99219 0.42187,-1.60156 0.42969,-0.61719 1.21875,-0.96875 0.79688,-0.35156 1.91406,-0.47656 1.11719,-0.125 2.39844,-0.1875 v -0.22657 q 0,-0.5 -0.17969,-0.82812 -0.17187,-0.32813 -0.5,-0.51563 -0.3125,-0.17968 -0.75,-0.24218 -0.4375,-0.0625 -0.91406,-0.0625 -0.57812,0 -1.28906,0.15625 -0.71094,0.14843 -1.46875,0.4375 h -0.0781 v -1.49219 q 0.42969,-0.11719 1.24219,-0.25781 0.8125,-0.14063 1.60156,-0.14063 0.92188,0 1.60157,0.15625 0.6875,0.14844 1.1875,0.51563 0.49218,0.35937 0.75,0.92968 0.25781,0.57032 0.25781,1.41407 z m -1.46094,-2.14844 v -2.42968 q -0.67187,0.0391 -1.58594,0.11718 -0.90625,0.0781 -1.4375,0.22657 -0.63281,0.17968 -1.02343,0.5625 -0.39063,0.375 -0.39063,1.03906 0,0.75 0.45313,1.13281 0.45312,0.375 1.38281,0.375 0.77344,0 1.41406,-0.29687 0.64063,-0.30469 1.1875,-0.72657 z"
         style="font-size:16px;-inkscape-font-specification:'sans-serif, Normal'"
         id="path6161" />
      <path
         d="m 207.0918,196.75195 q 0,1.08594 -0.32032,2.10157 -0.3125,1.01562 -0.89843,1.85156 h -3.4375 l -0.21094,-0.90625 q -0.57813,0.46875 -1.10938,0.71875 -0.53125,0.25 -1.21875,0.25 -1.3125,0 -2.10156,-0.99219 -0.78125,-0.99219 -0.78125,-2.77344 0,-1.77343 0.96094,-2.82812 0.96094,-1.05469 2.29687,-1.05469 0.57032,0 1.00782,0.13281 0.4375,0.125 0.94531,0.38282 v -0.375 h 1.24219 v 6.57812 h 1.89843 q 0.32813,-0.58594 0.49219,-1.46094 0.17188,-0.88281 0.17188,-1.57812 0,-1.28125 -0.35938,-2.32813 -0.35156,-1.04687 -1.03906,-1.79687 -0.6875,-0.75 -1.70313,-1.14844 -1.01562,-0.40625 -2.30468,-0.40625 -1.25,0 -2.28907,0.45313 -1.03125,0.45312 -1.77343,1.21875 -0.75,0.76562 -1.17969,1.83593 -0.42188,1.0625 -0.42188,2.26563 0,1.28906 0.40625,2.35937 0.40625,1.0625 1.14844,1.82032 0.77344,0.78906 1.8125,1.1875 1.03906,0.40625 2.26563,0.40625 0.67187,0 1.38281,-0.0859 0.71875,-0.0859 1.375,-0.27344 v 1.10938 q -0.75781,0.16406 -1.41406,0.21875 -0.65625,0.0625 -1.35157,0.0625 -1.45312,0 -2.69531,-0.5 -1.24219,-0.49219 -2.13281,-1.38282 -0.89844,-0.89843 -1.39844,-2.15625 -0.5,-1.25781 -0.5,-2.78125 0,-1.44531 0.52344,-2.6875 0.52344,-1.25 1.42969,-2.16406 0.90625,-0.91406 2.14843,-1.4375 1.24219,-0.52344 2.65625,-0.52344 1.53125,0 2.73438,0.48438 1.20312,0.48437 2.03125,1.35937 0.82812,0.875 1.26562,2.10938 0.44532,1.22656 0.44532,2.73437 z m -4.88282,1.99219 v -4.04687 q -0.49218,-0.22657 -0.88281,-0.32032 -0.39062,-0.10156 -0.83594,-0.10156 -1.00781,0 -1.57812,0.70313 -0.57031,0.70312 -0.57031,2 0,1.27343 0.45312,1.92968 0.45313,0.64844 1.41406,0.64844 0.52344,0 1.04688,-0.24219 0.52344,-0.24218 0.95312,-0.57031 z"
         style="font-size:16px;-inkscape-font-specification:'sans-serif, Normal'"
         id="path6163" />
      <path
         d="m 214.45898,201.85352 q -0.41406,0.10937 -0.90625,0.17968 -0.48437,0.0703 -0.86718,0.0703 -1.33594,0 -2.03125,-0.71875 -0.69532,-0.71875 -0.69532,-2.30469 v -4.64063 h -0.99218 v -1.23437 h 0.99218 v -2.50781 h 1.46875 v 2.50781 h 3.03125 v 1.23437 h -3.03125 v 3.97657 q 0,0.6875 0.0312,1.07812 0.0312,0.38281 0.21875,0.71875 0.17188,0.3125 0.46875,0.46094 0.30469,0.14062 0.92188,0.14062 0.35937,0 0.75,-0.10156 0.39062,-0.10937 0.5625,-0.17969 h 0.0781 z"
         style="font-size:16px;-inkscape-font-specification:'sans-serif, Normal'"
         id="path6165" />
      <path
         d="m 223.66992,197.57227 q 0,2.13281 -1.09375,3.36718 -1.09375,1.23438 -2.92969,1.23438 -1.85156,0 -2.94531,-1.23438 -1.08594,-1.23437 -1.08594,-3.36718 0,-2.13282 1.08594,-3.36719 1.09375,-1.24219 2.94531,-1.24219 1.83594,0 2.92969,1.24219 1.09375,1.23437 1.09375,3.36719 z m -1.51562,0 q 0,-1.69532 -0.66407,-2.51563 -0.66406,-0.82812 -1.84375,-0.82812 -1.19531,0 -1.85937,0.82812 -0.65625,0.82031 -0.65625,2.51563 0,1.64062 0.66406,2.49218 0.66406,0.84375 1.85156,0.84375 1.17188,0 1.83594,-0.83593 0.67188,-0.84375 0.67188,-2.5 z"
         style="font-size:16px;-inkscape-font-specification:'sans-serif, Normal'"
         id="path6167" />
      <path
         d="m 233.24023,201.93164 h -1.46875 v -4.96875 q 0,-0.60156 -0.0703,-1.125 -0.0703,-0.53125 -0.25781,-0.82812 -0.19531,-0.32813 -0.5625,-0.48438 -0.36719,-0.16406 -0.95313,-0.16406 -0.60156,0 -1.25781,0.29687 -0.65625,0.29688 -1.25781,0.75782 v 6.51562 h -1.46875 v -12.15625 h 1.46875 v 4.39844 q 0.6875,-0.57031 1.42187,-0.89063 0.73438,-0.32031 1.50782,-0.32031 1.41406,0 2.15625,0.85156 0.74218,0.85157 0.74218,2.45313 z"
         style="font-size:16px;-inkscape-font-specification:'sans-serif, Normal'"
         id="path6169" />
      <path
         d="m 243.50586,197.57227 q 0,2.13281 -1.09375,3.36718 -1.09375,1.23438 -2.92969,1.23438 -1.85156,0 -2.94531,-1.23438 -1.08594,-1.23437 -1.08594,-3.36718 0,-2.13282 1.08594,-3.36719 1.09375,-1.24219 2.94531,-1.24219 1.83594,0 2.92969,1.24219 1.09375,1.23437 1.09375,3.36719 z m -1.51563,0 q 0,-1.69532 -0.66406,-2.51563 -0.66406,-0.82812 -1.84375,-0.82812 -1.19531,0 -1.85937,0.82812 -0.65625,0.82031 -0.65625,2.51563 0,1.64062 0.66406,2.49218 0.66406,0.84375 1.85156,0.84375 1.17188,0 1.83594,-0.83593 0.67187,-0.84375 0.67187,-2.5 z"
         style="font-size:16px;-inkscape-font-specification:'sans-serif, Normal'"
         id="path6171" />
      <path
         d="m 253.70117,201.93164 h -1.9375 l -3.5,-3.82031 -0.95312,0.90625 v 2.91406 h -1.46875 v -12.15625 h 1.46875 v 7.79688 l 4.24218,-4.36719 h 1.85157 l -4.05469,4.03125 z"
         style="font-size:16px;-inkscape-font-specification:'sans-serif, Normal'"
         id="path6173" />
      <path
         d="m 262.48242,201.93164 h -1.46875 v -0.96875 q -0.74219,0.58594 -1.42187,0.89844 -0.67969,0.3125 -1.5,0.3125 -1.375,0 -2.14063,-0.83594 -0.76562,-0.84375 -0.76562,-2.46875 v -5.66406 h 1.46875 v 4.96875 q 0,0.66406 0.0625,1.14062 0.0625,0.46875 0.26562,0.80469 0.21094,0.34375 0.54688,0.5 0.33593,0.15625 0.97656,0.15625 0.57031,0 1.24219,-0.29687 0.67968,-0.29688 1.26562,-0.75782 v -6.51562 h 1.46875 z"
         style="font-size:16px;-inkscape-font-specification:'sans-serif, Normal'"
         id="path6175" />
      <path
         d="m 267.77148,201.93164 h -1.86718 v -2.22656 h 1.86718 z"
         style="font-size:16px;-inkscape-font-specification:'sans-serif, Normal'"
         id="path6177" />
      <path
         d="m 277.97461,201.93164 h -1.46094 v -0.92969 q -0.19531,0.13282 -0.53125,0.375 -0.32812,0.23438 -0.64062,0.375 -0.36719,0.17969 -0.84375,0.29688 -0.47657,0.125 -1.11719,0.125 -1.17969,0 -2,-0.78125 -0.82031,-0.78125 -0.82031,-1.99219 0,-0.99219 0.42187,-1.60156 0.42969,-0.61719 1.21875,-0.96875 0.79688,-0.35156 1.91406,-0.47656 1.11719,-0.125 2.39844,-0.1875 v -0.22657 q 0,-0.5 -0.17969,-0.82812 -0.17187,-0.32813 -0.5,-0.51563 -0.3125,-0.17968 -0.75,-0.24218 -0.4375,-0.0625 -0.91406,-0.0625 -0.57812,0 -1.28906,0.15625 -0.71094,0.14843 -1.46875,0.4375 h -0.0781 v -1.49219 q 0.42969,-0.11719 1.24219,-0.25781 0.8125,-0.14063 1.60156,-0.14063 0.92188,0 1.60157,0.15625 0.6875,0.14844 1.1875,0.51563 0.49218,0.35937 0.75,0.92968 0.25781,0.57032 0.25781,1.41407 z m -1.46094,-2.14844 v -2.42968 q -0.67187,0.0391 -1.58594,0.11718 -0.90625,0.0781 -1.4375,0.22657 -0.63281,0.17968 -1.02343,0.5625 -0.39063,0.375 -0.39063,1.03906 0,0.75 0.45313,1.13281 0.45312,0.375 1.38281,0.375 0.77344,0 1.41406,-0.29687 0.64063,-0.30469 1.1875,-0.72657 z"
         style="font-size:16px;-inkscape-font-specification:'sans-serif, Normal'"
         id="path6179" />
      <path
         d="m 287.25586,201.38477 q -0.73438,0.35156 -1.39844,0.54687 -0.65625,0.19531 -1.39844,0.19531 -0.94531,0 -1.73437,-0.27343 -0.78906,-0.28125 -1.35156,-0.84375 -0.57032,-0.5625 -0.88282,-1.42188 -0.3125,-0.85937 -0.3125,-2.00781 0,-2.14063 1.17188,-3.35938 1.17969,-1.21875 3.10937,-1.21875 0.75,0 1.46875,0.21094 0.72657,0.21094 1.32813,0.51563 v 1.63281 h -0.0781 q -0.67187,-0.52344 -1.39062,-0.80469 -0.71094,-0.28125 -1.39063,-0.28125 -1.25,0 -1.97656,0.84375 -0.71875,0.83594 -0.71875,2.46094 0,1.57812 0.70313,2.42969 0.71093,0.84375 1.99218,0.84375 0.44532,0 0.90625,-0.11719 0.46094,-0.11719 0.82813,-0.30469 0.32031,-0.16406 0.60156,-0.34375 0.28125,-0.1875 0.44531,-0.32031 h 0.0781 z"
         style="font-size:16px;-inkscape-font-specification:'sans-serif, Normal'"
         id="path6181" />
      <path
         d="m 291.53711,201.93164 h -1.86719 v -2.22656 h 1.86719 z"
         style="font-size:16px;-inkscape-font-specification:'sans-serif, Normal'"
         id="path6183" />
      <path
         d="m 297.67773,191.74414 h -1.65625 v -1.52344 h 1.65625 z m -0.0937,10.39844 q 0,1.53125 -0.78125,2.3125 -0.78125,0.78125 -2.09375,0.78125 -0.3125,0 -0.82812,-0.0625 -0.50781,-0.0625 -0.85156,-0.15625 v -1.39844 h 0.0781 q 0.21875,0.0859 0.58594,0.19531 0.375,0.10938 0.72656,0.10938 0.5625,0 0.90625,-0.15625 0.34375,-0.15625 0.51563,-0.46875 0.17187,-0.3125 0.21875,-0.75781 0.0547,-0.4375 0.0547,-1.07032 v -7.03125 h -1.82031 v -1.23437 h 3.28906 z"
         style="font-size:16px;-inkscape-font-specification:'sans-serif, Normal'"
         id="path6185" />
      <path
         d="m 308.14648,197.46289 q 0,1.0625 -0.30468,1.94531 -0.30469,0.875 -0.85938,1.48438 -0.51562,0.57812 -1.21875,0.89844 -0.69531,0.3125 -1.47656,0.3125 -0.67969,0 -1.23438,-0.14844 -0.54687,-0.14844 -1.11718,-0.46094 v 3.65625 h -1.46875 v -11.94531 h 1.46875 v 0.91406 q 0.58593,-0.49219 1.3125,-0.82031 0.73437,-0.33594 1.5625,-0.33594 1.57812,0 2.45312,1.19531 0.88281,1.1875 0.88281,3.30469 z m -1.51562,0.0391 q 0,-1.57812 -0.53906,-2.35937 -0.53907,-0.78125 -1.65625,-0.78125 -0.63282,0 -1.27344,0.27344 -0.64063,0.27343 -1.22656,0.71875 v 4.94531 q 0.625,0.28125 1.07031,0.38281 0.45312,0.10156 1.02344,0.10156 1.22656,0 1.91406,-0.82812 0.6875,-0.82813 0.6875,-2.45313 z"
         style="font-size:16px;-inkscape-font-specification:'sans-serif, Normal'"
         id="path6187" />
    </g>
  </g>
</svg>
