<?xml version="1.0" encoding="UTF-8" standalone="no"?>
<!-- Created with Inkscape (http://www.inkscape.org/) -->

<svg
   width="71.230003mm"
   height="4.1659999mm"
   viewBox="0 0 71.230003 4.1659999"
   version="1.1"
   id="svg5"
   inkscape:version="1.1.1 (3bf5ae0d25, 2021-09-20)"
   sodipodi:docname="mail.svg"
   xmlns:inkscape="http://www.inkscape.org/namespaces/inkscape"
   xmlns:sodipodi="http://sodipodi.sourceforge.net/DTD/sodipodi-0.dtd"
   xmlns="http://www.w3.org/2000/svg"
   xmlns:svg="http://www.w3.org/2000/svg">
  <sodipodi:namedview
     id="namedview7"
     pagecolor="#ffffff"
     bordercolor="#666666"
     borderopacity="1.0"
     inkscape:pageshadow="2"
     inkscape:pageopacity="0.0"
     inkscape:pagecheckerboard="0"
     inkscape:document-units="mm"
     showgrid="false"
     width="52.652mm"
     inkscape:zoom="3.641807"
     inkscape:cx="56.977209"
     inkscape:cy="-28.282663"
     inkscape:window-width="3840"
     inkscape:window-height="2054"
     inkscape:window-x="-11"
     inkscape:window-y="-11"
     inkscape:window-maximized="1"
     inkscape:current-layer="layer1"
     inkscape:showpageshadow="2"
     inkscape:deskcolor="#d1d1d1" />
  <defs
     id="defs2">
    <rect
       x="3.0204785"
       y="40.089989"
       width="349.27716"
       height="27.184307"
       id="rect1529" />
    <rect
       x="107.63887"
       y="162.55667"
       width="540.39105"
       height="133.9994"
       id="rect825" />
  </defs>
  <g
     inkscape:label="Layer 1"
     inkscape:groupmode="layer"
     id="layer1">
    <g
       transform="matrix(0.26458333,0,0,0.26458333,-1.107951,-11.242382)"
       id="text1527"
       style="font-size:16px;line-height:1.25;font-family:OpenDyslexic;-inkscape-font-specification:'OpenDyslexic, Normal';font-variant-ligatures:none;white-space:pre;shape-inside:url(#rect1529)">
      <path
         d="m 4.1875312,54.650893 0.32,-12.16 h 1.44 l -0.08,6.864 2.9600001,-3.456 h 1.8399997 l -3.3119998,4.096 4.8319998,4.656 H 9.2275313 l -3.3600001,-4.112 0.24,4.112 z"
         id="path13867" />
      <path
         d="m 14.52353,51.194893 v -5.296 h 1.2 v 4 c 0.112,1.648 0.656,2.48 1.952,2.48 1.552,0 2.4,-1.056 2.512,-2.768 l 0.16,-3.712 h 1.584 l -0.16,8.752 h -1.424 l 0.064,-1.344 c -0.688,1.056 -1.6,1.568 -2.816,1.568 -2,0 -3.072,-1.264 -3.072,-3.68 z"
         id="path13869" />
      <path
         d="m 25.403518,43.722893 h 1.52 l -0.08,2.176 h 2.032 v 1.12 h -2.032 l -0.08,3.808 c 0,1.44 0.304,1.68 1.488,1.68 h 1.488 v 2.144 h -1.488 c -2.208,0 -3.008,-0.688 -3.008,-2.88 l 0.08,-4.752 h -1.056 v -1.12 h 1.056 z"
         id="path13871" />
      <path
         d="m 38.299501,46.154893 v 1.2 c -0.816,-0.4 -1.696,-0.624 -2.624,-0.624 -1.44,0 -2.224,0.528 -2.224,1.392 0,0.784 0.464,1.152 2,1.488 l 0.496,0.112 c 2.032,0.432 2.816,1.088 2.816,2.512 0,1.632 -1.36,2.64 -3.616,2.64 -0.928,0 -1.936,-0.176 -3.072,-0.544 v -2.112 c 1.072,0.56 2.096,0.832 3.104,0.832 1.36,0 1.952,-0.416 1.952,-1.168 -0.176,-0.32 -0.32,-0.544 -0.448,-0.688 -0.112,-0.144 -0.624,-0.304 -1.52,-0.512 l -0.496,-0.112 c -1.776,-0.368 -2.528,-0.944 -2.528,-2.304 0,-1.648 1.216,-2.576 3.36,-2.576 1.072,0 2.016,0.16 2.8,0.464 z"
         id="path13873" />
      <path
         d="m 41.099488,51.194893 v -5.296 h 1.2 v 4 c 0.112,1.648 0.656,2.48 1.952,2.48 1.552,0 2.4,-1.056 2.512,-2.768 l 0.16,-3.712 h 1.584 l -0.16,8.752 h -1.424 l 0.064,-1.344 c -0.688,1.056 -1.6,1.568 -2.816,1.568 -2,0 -3.072,-1.264 -3.072,-3.68 z"
         id="path13875" />
      <path
         d="m 51.195476,46.970893 v -1.072 h 6.752 v 1.312 l -4.944,5.504 h 4.864 v 1.936 h -7.024 v -2.096 l 5.568,-5.584 z"
         id="path13877" />
      <path
         d="m 67.675448,49.658893 v 4.992 h -1.44 v -1.248 c -0.656,0.96 -1.6,1.472 -3.024,1.472 -1.776,0 -2.928,-1.088 -2.928,-2.768 0,-1.968 1.328,-2.976 3.936,-2.976 h 2.016 v -0.144 c 0,-1.328 -0.8,-2.128 -2.48,-2.24 -0.992,0 -1.952,0.24 -2.832,0.72 v -1.168 c 1.056,-0.4 2.048,-0.608 2.976,-0.608 2.544,0 3.776,1.296 3.776,3.968 z m -2.24,0.528 h -1.296 c -2.096,0 -2.64,0.448 -2.656,1.52 0.16,0.896 0.912,0.976 1.952,0.976 1.44,0 2,-0.304 2,-2.176 z"
         id="path13879" />
      <path
         d="m 72.107428,54.650893 -2.288,-8.752 h 1.44 l 1.792,6.128 1.632,-3.232 h 2.016 l 1.632,3.232 1.792,-6.128 h 1.44 l -2.288,8.752 h -2 l -1.584,-3.968 -1.648,3.968 z"
         id="path13881" />
      <path
         d="m 90.379397,49.658893 v 4.992 h -1.44 v -1.248 c -0.656,0.96 -1.6,1.472 -3.024,1.472 -1.776,0 -2.928,-1.088 -2.928,-2.768 0,-1.968 1.328,-2.976 3.936,-2.976 h 2.016 v -0.144 c 0,-1.328 -0.8,-2.128 -2.48,-2.24 -0.992,0 -1.952,0.24 -2.832,0.72 v -1.168 c 1.056,-0.4 2.048,-0.608 2.976,-0.608 2.544,0 3.776,1.296 3.776,3.968 z m -2.24,0.528 h -1.296 c -2.096,0 -2.64,0.448 -2.656,1.52 0.16,0.896 0.912,0.976 1.952,0.976 1.44,0 2,-0.304 2,-2.176 z"
         id="path13883" />
      <path
         d="m 101.88339,53.994893 v -1.2 c -0.64,0.8 -1.424,1.168 -2.495996,1.168 -1.792,0 -3.024,-1.424 -3.024,-3.504 0,-2.096 1.248,-3.52 3.024,-3.52 1.071996,0 1.871996,0.384 2.495996,1.184 v -1.024 h 1.104 v 5.744 c 1.536,-0.224 2.432,-1.456 2.432,-3.296 0,-1.12 -0.32,-2.096 -0.992,-2.928 -1.088,-1.36 -2.688,-2.112 -4.527996,-2.112 -1.28,0 -2.464,0.352 -3.472,1.008 -1.632,1.072 -2.608,2.88 -2.608,4.896 0,1.648 0.56,2.432 1.904,3.856 1.104,1.072 2.416,1.424 4.048,1.424 1.343996,0 2.687996,-0.384 3.775996,-1.232 l 0.688,1.408 c -1.296,1.008 -2.88,1.568 -4.463996,1.568 -1.92,0 -3.664,-0.704 -5.008,-2 -1.328,-1.312 -2.048,-3.056 -2.048,-5.024 0,-1.904 0.736,-3.68 2.048,-4.976 1.344,-1.328 3.152,-2.048 5.12,-2.048 2.223996,0 4.175996,0.944 5.455996,2.608 0.784,1.024 1.216,2.24 1.216,3.52 0,2.752 -1.76,4.416 -4.672,4.48 z m -4.495996,-4.176 c 0,1.328 0.784,2.144 2.08,2.144 1.279996,0 2.063996,-0.832 2.063996,-2.144 0,-1.312 -0.816,-2.144 -2.079996,-2.144 -1.264,0 -2.064,0.832 -2.064,2.144 z"
         id="path13885" />
      <path
         d="m 116.15539,47.578893 c 0.72,-1.28 1.552,-1.888 2.896,-1.888 1.824,0 2.848,1.328 2.848,3.68 l 0.16,5.28 h -2.144 l 0.544,-5.472 c 0,-1.68 -0.352,-2.48 -1.568,-2.48 -1.504,0 -2.256,1.296 -2.336,3.008 l -0.24,4.944 h -1.984 l 0.704,-5.552 c 0,-1.68 -0.592,-2.464 -1.824,-2.464 -1.472,0 -2.48,1.376 -2.48,3.072 l 0.16,4.944 h -2 l 0.4,-8.752 h 1.44 l -0.16,1.36 c 0.656,-1.072 1.552,-1.568 2.816,-1.568 1.28,0 2.336,0.656 2.768,1.888 z"
         id="path13887" />
      <path
         d="m 131.78739,49.658893 v 4.992 h -1.44 v -1.248 c -0.656,0.96 -1.6,1.472 -3.024,1.472 -1.776,0 -2.928,-1.088 -2.928,-2.768 0,-1.968 1.328,-2.976 3.936,-2.976 h 2.016 v -0.144 c 0,-1.328 -0.8,-2.128 -2.48,-2.24 -0.992,0 -1.952,0.24 -2.832,0.72 v -1.168 c 1.056,-0.4 2.048,-0.608 2.976,-0.608 2.544,0 3.776,1.296 3.776,3.968 z m -2.24,0.528 h -1.296 c -2.096,0 -2.64,0.448 -2.656,1.52 0.16,0.896 0.912,0.976 1.952,0.976 1.44,0 2,-0.304 2,-2.176 z"
         id="path13889" />
      <path
         d="m 134.28338,44.314893 0.08,-1.824 h 1.28 l 0.08,1.824 z m -0.16,10.336 c 0.208,-3.072 0.256,-6 0.24,-8.752 h 1.28 c -0.096,2.624 -0.016,5.568 0.32,8.752 z"
         id="path13891" />
      <path
         d="m 138.85938,54.650893 c 0.064,-4.048 0.176,-7.392 0.4,-11.456 h 1.36 c -0.192,3.456 -0.288,6.208 -0.32,9.68 h 1.696 v 1.776 z"
         id="path13893" />
      <path
         d="m 144.33136,54.650893 v -2.528 h 2.336 v 2.528 z"
         id="path13895" />
      <path
         d="m 155.22736,46.154893 v 1.2 c -0.816,-0.4 -1.696,-0.624 -2.624,-0.624 -1.44,0 -2.224,0.528 -2.224,1.392 0,0.784 0.464,1.152 2,1.488 l 0.496,0.112 c 2.032,0.432 2.816,1.088 2.816,2.512 0,1.632 -1.36,2.64 -3.616,2.64 -0.928,0 -1.936,-0.176 -3.072,-0.544 v -2.112 c 1.072,0.56 2.096,0.832 3.104,0.832 1.36,0 1.952,-0.416 1.952,-1.168 -0.176,-0.32 -0.32,-0.544 -0.448,-0.688 -0.112,-0.144 -0.624,-0.304 -1.52,-0.512 l -0.496,-0.112 c -1.776,-0.368 -2.528,-0.944 -2.528,-2.304 0,-1.648 1.216,-2.576 3.36,-2.576 1.072,0 2.016,0.16 2.8,0.464 z"
         id="path13897" />
      <path
         d="m 165.41934,49.658893 v 4.992 h -1.44 v -1.248 c -0.656,0.96 -1.6,1.472 -3.024,1.472 -1.776,0 -2.928,-1.088 -2.928,-2.768 0,-1.968 1.328,-2.976 3.936,-2.976 h 2.016 v -0.144 c 0,-1.328 -0.8,-2.128 -2.48,-2.24 -0.992,0 -1.952,0.24 -2.832,0.72 v -1.168 c 1.056,-0.4 2.048,-0.608 2.976,-0.608 2.544,0 3.776,1.296 3.776,3.968 z m -2.24,0.528 h -1.296 c -2.096,0 -2.64,0.448 -2.656,1.52 0.16,0.896 0.912,0.976 1.952,0.976 1.44,0 2,-0.304 2,-2.176 z"
         id="path13899" />
      <path
         d="m 167.91534,44.314893 0.08,-1.824 h 1.28 l 0.08,1.824 z m -0.16,10.336 c 0.208,-3.072 0.256,-6 0.24,-8.752 h 1.28 c -0.096,2.624 -0.016,5.568 0.32,8.752 z"
         id="path13901" />
      <path
         d="m 173.06734,43.722893 h 1.52 l -0.08,2.176 h 2.032 v 1.12 h -2.032 l -0.08,3.808 c 0,1.44 0.304,1.68 1.488,1.68 h 1.488 v 2.144 h -1.488 c -2.208,0 -3.008,-0.688 -3.008,-2.88 l 0.08,-4.752 h -1.056 v -1.12 h 1.056 z"
         id="path13903" />
      <path
         d="m 187.51529,49.658893 v 4.992 h -1.44 v -1.248 c -0.656,0.96 -1.6,1.472 -3.024,1.472 -1.776,0 -2.928,-1.088 -2.928,-2.768 0,-1.968 1.328,-2.976 3.936,-2.976 h 2.016 v -0.144 c 0,-1.328 -0.8,-2.128 -2.48,-2.24 -0.992,0 -1.952,0.24 -2.832,0.72 v -1.168 c 1.056,-0.4 2.048,-0.608 2.976,-0.608 2.544,0 3.776,1.296 3.776,3.968 z m -2.24,0.528 h -1.296 c -2.096,0 -2.64,0.448 -2.656,1.52 0.16,0.896 0.912,0.976 1.952,0.976 1.44,0 2,-0.304 2,-2.176 z"
         id="path13905" />
      <path
         d="m 197.11529,47.578893 c 0.72,-1.28 1.552,-1.888 2.896,-1.888 1.824,0 2.848,1.328 2.848,3.68 l 0.16,5.28 h -2.144 l 0.544,-5.472 c 0,-1.68 -0.352,-2.48 -1.568,-2.48 -1.504,0 -2.256,1.296 -2.336,3.008 l -0.24,4.944 h -1.984 l 0.704,-5.552 c 0,-1.68 -0.592,-2.464 -1.824,-2.464 -1.472,0 -2.48,1.376 -2.48,3.072 l 0.16,4.944 h -2 l 0.4,-8.752 h 1.44 l -0.16,1.36 c 0.656,-1.072 1.552,-1.568 2.816,-1.568 1.28,0 2.336,0.656 2.768,1.888 z"
         id="path13907" />
      <path
         d="m 212.74729,49.658893 v 4.992 h -1.44 v -1.248 c -0.656,0.96 -1.6,1.472 -3.024,1.472 -1.776,0 -2.928,-1.088 -2.928,-2.768 0,-1.968 1.328,-2.976 3.936,-2.976 h 2.016 v -0.144 c 0,-1.328 -0.8,-2.128 -2.48,-2.24 -0.992,0 -1.952,0.24 -2.832,0.72 v -1.168 c 1.056,-0.4 2.048,-0.608 2.976,-0.608 2.544,0 3.776,1.296 3.776,3.968 z m -2.24,0.528 h -1.296 c -2.096,0 -2.64,0.448 -2.656,1.52 0.16,0.896 0.912,0.976 1.952,0.976 1.44,0 2,-0.304 2,-2.176 z"
         id="path13909" />
      <path
         d="m 215.08328,50.906893 0.064,-1.28 4.208,-0.08 -0.064,1.296 z"
         id="path13911" />
      <path
         d="m 221.69125,51.194893 v -5.296 h 1.2 v 4 c 0.112,1.648 0.656,2.48 1.952,2.48 1.552,0 2.4,-1.056 2.512,-2.768 l 0.16,-3.712 h 1.584 l -0.16,8.752 h -1.424 l 0.064,-1.344 c -0.688,1.056 -1.6,1.568 -2.816,1.568 -2,0 -3.072,-1.264 -3.072,-3.68 z"
         id="path13913" />
      <path
         d="m 231.43524,54.650893 v -2.528 h 2.336 v 2.528 z"
         id="path13915" />
      <path
         d="m 243.49924,49.658893 v 4.992 h -1.44 v -1.248 c -0.656,0.96 -1.6,1.472 -3.024,1.472 -1.776,0 -2.928,-1.088 -2.928,-2.768 0,-1.968 1.328,-2.976 3.936,-2.976 h 2.016 v -0.144 c 0,-1.328 -0.8,-2.128 -2.48,-2.24 -0.992,0 -1.952,0.24 -2.832,0.72 v -1.168 c 1.056,-0.4 2.048,-0.608 2.976,-0.608 2.544,0 3.776,1.296 3.776,3.968 z m -2.24,0.528 h -1.296 c -2.096,0 -2.64,0.448 -2.656,1.52 0.16,0.896 0.912,0.976 1.952,0.976 1.44,0 2,-0.304 2,-2.176 z"
         id="path13917" />
      <path
         d="m 252.76324,46.234893 v 1.264 c -0.816,-0.448 -1.632,-0.672 -2.464,-0.672 -1.872,0 -2.864,1.328 -2.864,3.456 0.144,1.504 0.928,2.016 2.8,2.112 0.832,0 1.68,0.112 2.496,-0.336 l 0.032,2.256 c -0.8,0.368 -1.648,0.56 -2.624,0.56 -2.624,0 -4.304,-1.776 -4.304,-4.592 0,-2.848 1.68,-4.592 4.4,-4.592 0.88,0 1.744,0.176 2.528,0.544 z"
         id="path13919" />
      <path
         d="m 254.71521,54.650893 v -2.528 h 2.336 v 2.528 z"
         id="path13921" />
      <path
         d="m 261.33921,44.314893 0.08,-1.824 h 1.28 l 0.08,1.824 z m -0.624,9.6 0.368,-7.968 1.36,0.016 -0.304,8.912 c -0.048,2.224 -0.864,3.28 -2.752,3.36 l -0.784,-0.016 0.048,-2.16 h 0.608 c 1.104,-0.08 1.36,-0.32 1.456,-2.144 z"
         id="path13923" />
      <path
         d="m 267.0192,53.338893 -0.064,4.64 h -1.84 l 0.704,-5.36 v -6.592 h 1.44 l -0.24,1.2 c 0.592,-1.04 1.52,-1.536 2.8,-1.536 2.128,0 3.584,1.84 3.584,4.592 0,2.752 -1.456,4.592 -3.584,4.592 -1.28,0 -2.208,-0.496 -2.8,-1.536 z m 5.456,-3.312 c 0,-2.112 -0.912,-3.376 -2.448,-3.376 -1.52,0 -2.432,1.264 -2.432,3.376 0,2.128 0.992,2.48 2.512,2.48 1.52,0 2.368,-0.352 2.368,-2.48 z"
         id="path13925" />
    </g>
  </g>
</svg>
